<?xml version="1.0" encoding="UTF-8"?>
<svg width="32px" height="32px" viewBox="0 0 32 32" version="1.1" xmlns="http://www.w3.org/2000/svg" xmlns:xlink="http://www.w3.org/1999/xlink">
    <title>Artboard Copy 51</title>
    <g id="Artboard-Copy-51" stroke="none" stroke-width="1" fill="none" fill-rule="evenodd">
        <path d="M16,0 C24.836556,0 32,7.163444 32,16 C32,24.836556 24.836556,32 16,32 C7.163444,32 0,24.836556 0,16 C0,7.163444 7.163444,0 16,0 Z M16,1 C7.71572875,1 1,7.71572875 1,16 C1,24.2842712 7.71572875,31 16,31 C24.2842712,31 31,24.2842712 31,16 C31,14.4997478 30.7797514,13.0509374 30.3698246,11.6841392 L30.3698246,11.6841392 L30,11.5 L29,13 L27.5,11.5 L27,12.5 L28.5,13.5 L29.5,15 L29.5,17 L28.5,16 L28.5,18 L25.5,21.5 L26,19.5 L27,18 L27,16 L27.0166811,15.8294613 C27.0611639,15.3413579 27.0556036,15.0648708 27,15 C26.496575,14.4126708 25.8299083,13.5793375 25,12.5 L25,12.5 L22.5,11.5 L22,12.5 L22,13.5 L23.5,13.5 L23.5,14.5 L25,15.5 L25.5,16.5 L25,17.5 L24.5,19 L23.5,20 L22.5,21.5 L21,22.5 L18.5,23.5 L18.7518159,23.308233 C19.3239228,22.8718006 19.7877842,22.5125354 20.1434001,22.2304374 L20.1434001,22.2304374 L20.3934001,22.0304374 C20.7369819,21.7528351 20.9391819,21.5760227 21,21.5 L21,21.5 L21.0894848,21.3891771 C21.3447299,21.076319 21.4810936,20.9399553 21.4985757,20.9800862 L21.4985757,20.9800862 L21.5,20.998 L21.5,20 L22.5,19.5 L21.5,18.5 L23,18.5 L22.2825038,18.0437406 L22.5,17.5 L21.5,16.5 L22,16 L22,15 L21,14 L20,13.5 L19,14.5 L19,16 L20,17 L18.5,16.5 L17,15.5 L16,14.5 L16.5,16 L16,16 L15,15 L15.5,13.5 L15.5,12 L16,13 L17,14 L18,13.5 L17,12.5 L17,12 L16.5,11 L17.5,11 L18.5,12.5 L19.5,11.5 L19,10.5 L18,10.5 L17,9.5 L17.5,8 L15.5,8 L15,9 L15,10.5 L13.5,10 L12.5,10.5 L11.5,10 L11,8 L10.5,7.5 L7.5,8.5 L7.34249563,8.67672203 C6.98582023,9.07183275 6.70498835,9.34625874 6.5,9.5 C6.41715769,9.56213173 6.25049102,10.2287984 6,11.5 L6,11.5 L5.5,10 L6.5,8 L7.5,6.5 L10.5,5.5 L13,4.5 L13,5 L12,5.5 L12.5,6 L16.5,5.5 L17.5,6 L18,6.5 L18.5,6.5 L19.5,5 L21.5,6 L21.4919991,5.88334866 C21.4786644,5.66512024 21.4813313,5.53733735 21.5,5.5 C21.5266901,5.44661978 21.3600234,5.11328644 21,4.5 L21,4.5 L22,5 L23,6 L24,6.5 L25,6 L24,4.5 L26,5.5 L26.1753918,4.97894634 C23.5015713,2.50907246 19.927017,1 16,1 Z M11,22 C11.3945968,23.0046778 11.7279301,23.6713445 12,24 C12.4759509,24.5749401 12.9071824,24.9381216 13,25 C13.3406591,25.2271061 13.6739925,25.5604394 14,26 L14,26 L15,26.5 L19,27.5 L16.5,27.5 L18.5,29 L18.5,29.5 L17.5,29 L16.5,29 L16,28.5 L16,29.5 L15,29 L13.5,28 L14,29 L13,29 L12,28 L11,27.5 L10.5,26.5 L9.5,25.5 L9,25.5 L8.5,24.5 L9,25 L9,23.5 L9.5,25 L12.5,27 L13.5,27 L11.5,25.5 L11,24 Z M4,11 L4.5,13 L5.5,13.5 L5.5,13 L6.03316064,13.2284974 L6.5,12.5 L8,13.5 L7.84101196,13.4835424 C7.18125029,13.4177119 6.90091297,13.4231978 7,13.5 C7.19039687,13.6475764 7.5350817,13.838533 8.03405451,14.0728699 C8.21744619,14.1589977 8.53942802,14.3013744 9,14.5 L9,14.5 L8.5,15 L9.5,15.5 L7.5,17.5 L8.64828613,16.9619971 L8.5,18 L8,19 L5,21.5 L5.10307335,21.2755208 C5.80538055,19.7411143 6.1043561,18.9826073 6,19 C5.63586709,19.0606888 5.30253376,19.2273555 5,19.5 L5,19.5 L4,20.5 L4,19.5 L5.5,17 L5.5,16 L5,14.5 L4.5,15 L4.5,16.5 L4,16 L3.5,14 L3.5,12.5 L4,11 Z" id="Combined-Shape" fill="#FFFFFF"></path>
    </g>
</svg>